<?xml version="1.0" encoding="utf-8"?>
<svg version="1.1" xmlns:xlink="http://www.w3.org/1999/xlink" width="114px" height="95px" xmlns="http://www.w3.org/2000/svg">
  <g transform="matrix(1 0 0 1 -225 -237 )">
    <path d="M 109.478365384615 21.7258522727273  C 112.492788461538 24.6946022727273  114 28.2481060606061  114 32.3863636363636  L 114 79.8863636363636  C 114 84.0246212121212  112.492788461538 87.578125  109.478365384615 90.546875  C 106.463942307692 93.515625  102.855769230769 95  98.6538461538462 95  L 15.3461538461538 95  C 11.1442307692308 95  7.53605769230769 93.515625  4.52163461538462 90.546875  C 1.50721153846154 87.578125  0 84.0246212121212  0 79.8863636363636  L 0 15.1136363636364  C 0 10.9753787878788  1.50721153846154 7.421875  4.52163461538462 4.453125  C 7.53605769230769 1.484375  11.1442307692308 0  15.3461538461538 0  L 37.2692307692308 0  C 41.4711538461539 0  45.0793269230769 1.484375  48.09375 4.453125  C 51.1081730769231 7.421875  52.6153846153846 10.9753787878788  52.6153846153846 15.1136363636364  L 52.6153846153846 18  L 98.6538461538462 18  C 102.855769230769 17.2727272727273  106.463942307692 18.7571022727273  109.478365384615 21.7258522727273  Z " fill-rule="nonzero" fill="#7f7f7f" stroke="none" transform="matrix(1 0 0 1 225 237 )" />
  </g>
</svg>